<?xml version="1.0" standalone="no"?>
<!DOCTYPE svg PUBLIC "-//W3C//DTD SVG 20010904//EN"
 "http://www.w3.org/TR/2001/REC-SVG-20010904/DTD/svg10.dtd">
<svg version="1.0" xmlns="http://www.w3.org/2000/svg"
 width="400.000000pt" height="400.000000pt" viewBox="0 0 400.000000 400.000000"
 preserveAspectRatio="xMidYMid meet">
<metadata>
Created by potrace 1.11, written by Peter Selinger 2001-2013
</metadata>
<g transform="translate(0.000000,400.000000) scale(0.100000,-0.100000)"
fill="#000000" stroke="none">
<path d="M1490 3269 c-657 -41 -1181 -175 -1256 -320 -11 -22 -14 -74 -14
-234 l0 -205 1780 0 1780 0 0 215 0 214 -38 40 c-130 136 -625 252 -1242 291
-188 11 -822 11 -1010 -1z"/>
<path d="M197 2426 c-51 -19 -63 -31 -83 -82 -22 -58 -8 -110 41 -153 l36 -31
1811 0 1810 0 38 38 c50 50 59 94 32 155 -13 30 -32 52 -54 64 -32 17 -112 18
-1813 20 -1471 2 -1787 0 -1818 -11z"/>
<path d="M220 2015 l0 -65 1780 0 1780 0 0 65 0 65 -1780 0 -1780 0 0 -65z"/>
<path d="M60 1873 c-62 -23 -81 -103 -35 -148 l24 -25 1951 0 1951 0 24 25
c35 34 34 93 -1 126 l-26 24 -1936 2 c-1065 1 -1944 -1 -1952 -4z"/>
<path d="M249 1581 c-28 -28 -29 -33 -29 -125 0 -86 2 -98 24 -123 l24 -28
1732 0 1732 0 24 28 c22 25 24 37 24 123 0 92 -1 97 -29 125 l-29 29 -1722 0
-1722 0 -29 -29z"/>
<path d="M220 1043 c0 -210 11 -245 88 -294 l46 -29 1643 0 c1637 0 1644 0
1684 20 24 13 51 39 70 67 l29 47 0 183 0 183 -1780 0 -1780 0 0 -177z"/>
</g>
</svg>
